<?xml version="1.0" encoding="UTF-8" standalone="no"?>
<svg
   xmlns:dc="http://purl.org/dc/elements/1.1/"
   xmlns:cc="http://creativecommons.org/ns#"
   xmlns:rdf="http://www.w3.org/1999/02/22-rdf-syntax-ns#"
   xmlns:svg="http://www.w3.org/2000/svg"
   xmlns="http://www.w3.org/2000/svg"
   height="100"
   width="100"
   id="svg2"
   xml:space="preserve"
   enable-background="new 0 0 100 100"
   viewBox="0 0 100 100"
   y="0px"
   x="0px"
   version="1.1"><metadata
     id="metadata14"><rdf:RDF><cc:Work
         rdf:about=""><dc:format>image/svg+xml</dc:format><dc:type
           rdf:resource="http://purl.org/dc/dcmitype/StillImage" /><dc:title></dc:title></cc:Work></rdf:RDF></metadata><defs
     id="defs12" /><path
     id="path4"
     d="M 95,42 C 94.9,41.5 94.7,41.1 94.3,40.7 L 71.8,18.2 C 71.3,17.7 70.7,17.5 70,17.5 l -62.5,0 C 6.1,17.5 5,18.6 5,20 L 5,57.5 C 5,58.9 6.1,60 7.5,60 8.9,60 10,58.9 10,57.5 L 10,26 27.5,43.5 27.5,80 c 0,1.4 1.1,2.5 2.5,2.5 1.4,0 2.5,-1.1 2.5,-2.5 l 0,-35 35,0 0,12.5 c 0,1.4 1.1,2.5 2.5,2.5 1.4,0 2.5,-1.1 2.5,-2.5 l 0,-12.5 17.5,0 0,35 c 0,1.4 1.1,2.5 2.5,2.5 1.4,0 2.5,-1.1 2.5,-2.5 l 0,-37.5 c 0,-0.2 0,-0.3 0,-0.5 z M 31,40 13.5,22.5 69,22.5 86.5,40 31,40 Z" /></svg>